<?xml version="1.0" encoding="utf-8"?>
<!-- Generator: Adobe Illustrator 19.0.0, SVG Export Plug-In . SVG Version: 6.00 Build 0)  -->
<svg version="1.1" id="Layer_1" xmlns="http://www.w3.org/2000/svg" xmlns:xlink="http://www.w3.org/1999/xlink" x="0px" y="0px"
	 viewBox="-408 583.5 24 24" style="enable-background:new -408 583.5 24 24;" xml:space="preserve">
<style type="text/css">
	.st0{fill:none;}
	.st1{fill:#F7941E;}
</style>
<path class="st0" d="M-408,583.5h24v24h-24V583.5z"/>
<path class="st1" d="M-396,585.5c-5.5,0-10,4.5-10,10c0,5.5,4.5,10,10,10s10-4.5,10-10C-386,590-390.5,585.5-396,585.5z M-397,603.5
	c-4-0.5-7-3.8-7-7.9c0-0.6,0.1-1.2,0.2-1.8l4.8,4.8v1c0,1.1,0.9,2,2,2V603.5z M-390.1,600.9c-0.3-0.8-1-1.4-1.9-1.4h-1v-3
	c0-0.5-0.5-1-1-1h-6v-2h2c0.5,0,1-0.5,1-1v-2h2c1.1,0,2-0.9,2-2v-0.4c2.9,1.2,5,4.1,5,7.4C-388,597.6-388.8,599.5-390.1,600.9z"/>
</svg>
