<?xml version="1.0" encoding="utf-8"?>
<!-- Generator: Adobe Illustrator 19.0.0, SVG Export Plug-In . SVG Version: 6.00 Build 0)  -->
<svg version="1.1" id="Layer_1" xmlns="http://www.w3.org/2000/svg" xmlns:xlink="http://www.w3.org/1999/xlink" x="0px" y="0px"
	 viewBox="0 0 608 270" style="enable-background:new 0 0 608 270;" xml:space="preserve">
<polygon points="0,240.3 24,227 24,203 28,203 28,180 32,180 32,184 42,184 42,180 48,180 50,176 60,176 60,164 66,164 66,130 
	72,130 72,126 78,126 78,130 114,130 114,164 126,164 130,160 130,150 142,150 142,102 200,102 202,88 204,102 210,120 212,120 
	212,132 214,132 214,166 218,166 222,166 222,148 236,148 236,180 240,180 240,190 244,190 244,180 246,180 246,176 248,176 
	248,168 250,168 250,164 254,164 270,148 272,148 280,156 280,180 290,180 290,154 306,154 306,150 318,150 318,152 330,152 
	330,146 340,146 340,144 344,144 344,146 346,146 346,152 352,152 352,148 362,148 362,160 382,160 382,150 392,150 392,146 
	402,146 402,156 404,156 404,160 412,160 412,156 414,156 414,152 424,152 424,144 430,144 430,138 438,138 438,144 444,144 
	444,154 446,154 446,188 450,188 450,180 456,180 456,102 458,102 458,80 462,80 462,72 464,72 464,66 466,66 466,60 468,60 472,50 
	472,36 474,36 474,30 476,30 478,0 480,30 482,30 482,36 484,36 484,50 488,60 488,66 490,66 490,72 492,72 492,80 496,80 496,102 
	498,102 498,196 508,196 508,200 514,200 518,196 518,178 520,178 520,156 526,156 526,142 548,142 548,156 554,156 554,178 
	556,178 556,196 558,196 558,198.7 584,198.8 584,206.8 586,206.8 586,198.8 597.3,198.8 597.7,230.5 606,232.5 606,252.2 
	608,252.2 608,270 218,270 0,270 "/>
</svg>
