<?xml version="1.0" encoding="utf-8"?>
<!-- Generator: Adobe Illustrator 19.0.0, SVG Export Plug-In . SVG Version: 6.00 Build 0)  -->
<svg version="1.1" id="Layer_1" xmlns="http://www.w3.org/2000/svg" xmlns:xlink="http://www.w3.org/1999/xlink" x="0px" y="0px"
	 viewBox="0 0 688 268.7" style="enable-background:new 0 0 688 268.7;" xml:space="preserve">
<path d="M0,268.7V150.8h3.8v-18.2h4.3l3.7-15.2l4.2,14.8h3.5v26.3h2.3v5.8l2.2,1.7v8h5.8v-57.3h58.5v46h3.8v16H96v4.2h9.8v-3.7h5.8
	l2.8-4.7h9.5V163h6v-33.8h6.2v-4.5h5.7v4.3h35.8v33.7h13l3.8-3.8v-10.2h11.3v-47.2h58l2.2-14.8l1.8,14.8l6,17.2h1.8v11.8h1.8v33.3
	h8.5v-16.7h13.8v31.7h3.8V189h5v-10h1.5v-4h2v-8h2.2v-4.3h4l15-15.7h2.8l7.6,7.6v23h10.4v-25h16.5v-4.2h11.2v2.8h12.5
	c0,0,0.5-6.3,0-6.3s9.5,0,9.5,0v-2.3h4.3v2.2h1.7v5.7h6.5v-3.7h9.7V159h20v-9.8h10.2V145h10.2v10.8h1.2v4h9V155h1.5v-4.2h9.8v-8.3
	h6.5v-6h8.3v7h5v9.8h2.2v33.3h4.2v-7.8h5.5v-78.3h2.5v-22h3.3v-7.7h3v-6.3h1.7v-5.7h1.7l4.7-9.5V34.7h2v-5.8h1.7L541.5,0l2.7,28.7
	h1.5v6.2h2.3v14.5l3.5,8.8v6.7h2.2v5.7h2V79h3.7v21.5h2.3V195h10.2v3.7h6.5l3.7-3.7v-18.3h2v-22h6.3v-13.5h21.2v13.7h6.2V177h2.3
	v17.5h2.2v-5.2h25.3v-37l2.2-2.2v-7.4h17.9v8.7l2,2v19h8.5V201h3.7v-4.5l2.2-2.2v-13.2h4v87.5H0z"/>
</svg>
