<?xml version="1.0" encoding="utf-8"?>
<!-- Generator: Adobe Illustrator 19.0.0, SVG Export Plug-In . SVG Version: 6.00 Build 0)  -->
<svg version="1.1" id="Layer_1" xmlns="http://www.w3.org/2000/svg" xmlns:xlink="http://www.w3.org/1999/xlink" x="0px" y="0px"
	 viewBox="0 0 720 250" style="enable-background:new 0 0 720 250;" xml:space="preserve">
<polygon points="0,250 0,112.7 2,112.7 2,108 20,108 20,112.3 25,112.3 25,126.3 39.3,126.3 39.3,71.7 51.7,80 55.7,80 55.7,60 
	57.7,60 65,37.7 73.3,59.3 75.3,59.3 75.3,80 80,80 91.3,71.7 91.3,108.7 98,108.7 98,128 99.8,129.8 99.8,140.3 101.6,142.1 
	101.6,148 106,148 106,143.8 109.7,143.8 111.9,141.6 113.9,143.6 120.3,143.6 120.3,80.3 132.7,80.3 132.7,66 147.3,66 147.3,79.7 
	160,79.7 160,104 190.7,104 190.7,140 207.3,140 207.3,146.3 209.3,146.3 209.3,173 213.3,177 213.3,196.3 220,196.3 220,186.3 
	222.3,186.3 222.3,128 224,128 224,120.3 225.7,120.3 225.7,116 227.3,116 227.3,111.7 245.3,93.7 264.2,112.5 264.2,116.3 
	266,116.3 266,120 267.7,120 267.7,125 279.5,113.2 291.3,125 291.3,130 304.3,130 304.3,145 308.7,145 308.7,154 321.3,154 
	321.3,160.3 324,160.3 324,166.3 326,166.3 326,178.3 327.7,178.3 327.7,184.7 335,184.7 335,191.7 340.3,191.7 340.3,130 
	357.3,130 357.3,125 364,125 364,99.7 392,68.3 419.7,99.7 419.7,152 428,152 428,94 429.5,95.5 429.5,86.3 432,86.3 432,78.3 
	434,78.3 457.7,0 480.3,78.3 482,78.3 482,86.7 484.3,86.7 484.3,94.7 486,94.7 486,175 491.7,175 491.7,142.3 544.3,142.3 
	544.3,132 556.3,132 556.3,115 560,115 563.7,98 568,114.7 571,114.7 571,140 574,140 574,145.7 576.5,148.2 576.5,155.7 
	581.7,155.7 581.7,99 639,99 639,145 643.7,145 643.7,160.7 647.7,160.7 647.7,164.7 659,164.7 659,160.3 664,160.3 667.3,157 
	676,157 676,144 682,144 682,109.3 687.7,109.3 687.7,105.3 694,105.3 694,110.7 720,110.7 720,250 "/>
</svg>
